# xmcd
#
# Track frame offsets: 
#        150
#        14297
#        28630
#        45433
#        61065
#        78062
#        92686
#        112520
#        127182
#        144837
#
# Disc length: 2116 seconds
#
# Revision: 0
# Processed by: cddbd v1.5.2PL0 Copyright (c) Steve Scherf et al.
# Submitted via: ExactAudioCopyFreeDBPlugin 1.0
#
DISCID=6908420a
DTITLE=Tim Bluhm - Sorta Surviving
DYEAR=2019
DGENRE=Folk/Rock
TTITLE0=Jesus Save A Singer
TTITLE1=No Way To Steer
TTITLE2=Jimmy West
TTITLE3=Where I Parked My Mind
TTITLE4=Raining Gravel
TTITLE5=Sorta Surviving
TTITLE6=Del Rio Dan
TTITLE7=I Still Miss Someone
TTITLE8=Squeaky Wheel
TTITLE9=Kern River
EXTD=
EXTT0=
EXTT1=
EXTT2=
EXTT3=
EXTT4=
EXTT5=
EXTT6=
EXTT7=
EXTT8=
EXTT9=
PLAYORDER=
